<svg xmlns="http://www.w3.org/2000/svg" xmlns:xlink="http://www.w3.org/1999/xlink" version="1.1" x="0px" y="0px" viewBox="0 0 32 40" enable-background="new 0 0 32 32" xml:space="preserve"><path d="M16,2C8.2802734,2,2,8.2802734,2,16s6.2802734,14,14,14s14-6.2802734,14-14S23.7197266,2,16,2z M22.7475586,11.6645508  l-8,9.0002441C14.5644531,20.8703613,14.3046875,21,14.0292969,21C14.0195313,21,14.0097656,21,14,21  c-0.2646484,0-0.5195313-0.1049805-0.7070313-0.2929688l-4-4c-0.390625-0.390625-0.390625-1.0234375,0-1.4140625  s1.0234375-0.390625,1.4140625,0l3.25,3.25l7.2954102-8.2075195c0.3666992-0.4125977,0.9985352-0.4506836,1.4121094-0.0830078  C23.0771484,10.6196289,23.1142578,11.2514648,22.7475586,11.6645508z"/><text x="0" y="47" fill="#000000" font-size="5px" font-weight="bold" font-family="'Helvetica Neue', Helvetica, Arial-Unicode, Arial, Sans-serif">Created by maria icon</text><text x="0" y="52" fill="#000000" font-size="5px" font-weight="bold" font-family="'Helvetica Neue', Helvetica, Arial-Unicode, Arial, Sans-serif">from the Noun Project</text></svg>