<svg xmlns:dc="http://purl.org/dc/elements/1.1/" xmlns:cc="http://creativecommons.org/ns#" xmlns:rdf="http://www.w3.org/1999/02/22-rdf-syntax-ns#" xmlns:svg="http://www.w3.org/2000/svg" xmlns="http://www.w3.org/2000/svg" xmlns:sodipodi="http://sodipodi.sourceforge.net/DTD/sodipodi-0.dtd" xmlns:inkscape="http://www.inkscape.org/namespaces/inkscape" viewBox="0 0 110 137.5" version="1.1" x="0px" y="0px"><g transform="translate(0,-942.36216)"><path style="" d="M 55 5 A 50 50 0 0 0 5 55 A 50 50 0 0 0 55 105 A 50 50 0 0 0 105 55 A 50 50 0 0 0 55 5 z M 37.269531 32.273438 A 5.0005 5.0005 0 0 1 40.857422 33.787109 L 55 47.929688 L 69.142578 33.787109 A 5.0005 5.0005 0 0 1 72.580078 32.275391 A 5.0005 5.0005 0 0 1 76.212891 40.859375 L 62.070312 55 L 76.212891 69.142578 A 5.0005 5.0005 0 1 1 69.142578 76.214844 L 55 62.072266 L 40.857422 76.214844 A 5.0005 5.0005 0 1 1 33.787109 69.142578 L 47.929688 55 L 33.787109 40.859375 A 5.0005 5.0005 0 0 1 37.269531 32.273438 z " transform="translate(0,942.36216)" fill="#000000" fill-opacity="1" stroke="none"/></g><text x="0" y="125" fill="#000000" font-size="5px" font-weight="bold" font-family="'Helvetica Neue', Helvetica, Arial-Unicode, Arial, Sans-serif">Created by Florent Brunet</text><text x="0" y="130" fill="#000000" font-size="5px" font-weight="bold" font-family="'Helvetica Neue', Helvetica, Arial-Unicode, Arial, Sans-serif">from the Noun Project</text></svg>